<mxfile host="app.diagrams.net" modified="2023-08-17T02:57:09.950Z" agent="Mozilla/5.0 (Windows NT 10.0; Win64; x64; rv:109.0) Gecko/20100101 Firefox/116.0" etag="MF_ttMejwI0LDNjabTs-" version="21.6.6" type="github">
  <diagram name="Page-1" id="03018318-947c-dd8e-b7a3-06fadd420f32">
    <mxGraphModel dx="1434" dy="1381" grid="1" gridSize="10" guides="1" tooltips="1" connect="1" arrows="1" fold="1" page="1" pageScale="1" pageWidth="1100" pageHeight="850" background="#ffffff" math="0" shadow="0">
      <root>
        <mxCell id="0" />
        <mxCell id="1" parent="0" />
        <mxCell id="677b7b8949515195-9" value="" style="line;strokeWidth=1;html=1;rounded=0;shadow=0;labelBackgroundColor=none;fillColor=none;fontFamily=Verdana;fontSize=14;fontColor=#000000;align=center;comic=1;" parent="1" vertex="1">
          <mxGeometry x="20" y="140" width="1060" height="10" as="geometry" />
        </mxCell>
        <mxCell id="677b7b8949515195-11" value="M365" style="text;html=1;points=[];align=left;verticalAlign=top;spacingTop=-4;fontSize=14;fontFamily=Verdana" parent="1" vertex="1">
          <mxGeometry x="60" y="170" width="60" height="20" as="geometry" />
        </mxCell>
        <mxCell id="677b7b8949515195-14" value="Thêm mới Acc" style="text;html=1;points=[];align=left;verticalAlign=top;spacingTop=-4;fontSize=14;fontFamily=Verdana" parent="1" vertex="1">
          <mxGeometry x="70" y="70" width="60" height="20" as="geometry" />
        </mxCell>
        <mxCell id="yBC6R7OpuOeq6FXOvLz5-2" value="Quản Lý Acc" style="rounded=0;whiteSpace=wrap;html=1;" parent="1" vertex="1">
          <mxGeometry x="60" y="50" width="120" height="60" as="geometry" />
        </mxCell>
        <mxCell id="yBC6R7OpuOeq6FXOvLz5-3" value="Bảng Danh sach acc" style="swimlane;fontStyle=0;childLayout=stackLayout;horizontal=1;startSize=30;horizontalStack=0;resizeParent=1;resizeParentMax=0;resizeLast=0;collapsible=1;marginBottom=0;whiteSpace=wrap;html=1;" parent="1" vertex="1">
          <mxGeometry x="50" y="250" width="980" height="120" as="geometry" />
        </mxCell>
        <mxCell id="yBC6R7OpuOeq6FXOvLz5-4" value="Acc 1&lt;span style=&quot;white-space: pre;&quot;&gt;&#x9;&lt;/span&gt;" style="text;strokeColor=none;fillColor=none;align=left;verticalAlign=middle;spacingLeft=4;spacingRight=4;overflow=hidden;points=[[0,0.5],[1,0.5]];portConstraint=eastwest;rotatable=0;whiteSpace=wrap;html=1;" parent="yBC6R7OpuOeq6FXOvLz5-3" vertex="1">
          <mxGeometry y="30" width="980" height="30" as="geometry" />
        </mxCell>
        <mxCell id="yBC6R7OpuOeq6FXOvLz5-5" value="Acc 2" style="text;strokeColor=none;fillColor=none;align=left;verticalAlign=middle;spacingLeft=4;spacingRight=4;overflow=hidden;points=[[0,0.5],[1,0.5]];portConstraint=eastwest;rotatable=0;whiteSpace=wrap;html=1;" parent="yBC6R7OpuOeq6FXOvLz5-3" vertex="1">
          <mxGeometry y="60" width="980" height="30" as="geometry" />
        </mxCell>
        <mxCell id="yBC6R7OpuOeq6FXOvLz5-6" value="Acc 2" style="text;strokeColor=none;fillColor=none;align=left;verticalAlign=middle;spacingLeft=4;spacingRight=4;overflow=hidden;points=[[0,0.5],[1,0.5]];portConstraint=eastwest;rotatable=0;whiteSpace=wrap;html=1;" parent="yBC6R7OpuOeq6FXOvLz5-3" vertex="1">
          <mxGeometry y="90" width="980" height="30" as="geometry" />
        </mxCell>
        <mxCell id="yBC6R7OpuOeq6FXOvLz5-8" value="Console log " style="rounded=0;whiteSpace=wrap;html=1;" parent="1" vertex="1">
          <mxGeometry x="50" y="410" width="980" height="440" as="geometry" />
        </mxCell>
        <mxCell id="yBC6R7OpuOeq6FXOvLz5-9" value="G88" style="text;html=1;points=[];align=left;verticalAlign=top;spacingTop=-4;fontSize=14;fontFamily=Verdana" parent="1" vertex="1">
          <mxGeometry x="140" y="170" width="60" height="20" as="geometry" />
        </mxCell>
        <mxCell id="yBC6R7OpuOeq6FXOvLz5-10" value="R88" style="text;html=1;points=[];align=left;verticalAlign=top;spacingTop=-4;fontSize=14;fontFamily=Verdana" parent="1" vertex="1">
          <mxGeometry x="230" y="170" width="60" height="20" as="geometry" />
        </mxCell>
        <mxCell id="yBC6R7OpuOeq6FXOvLz5-11" value="M88" style="text;html=1;points=[];align=left;verticalAlign=top;spacingTop=-4;fontSize=14;fontFamily=Verdana" parent="1" vertex="1">
          <mxGeometry x="310" y="170" width="60" height="20" as="geometry" />
        </mxCell>
        <mxCell id="yBC6R7OpuOeq6FXOvLz5-12" value="..." style="text;html=1;points=[];align=left;verticalAlign=top;spacingTop=-4;fontSize=14;fontFamily=Verdana" parent="1" vertex="1">
          <mxGeometry x="390" y="170" width="60" height="20" as="geometry" />
        </mxCell>
        <mxCell id="yBC6R7OpuOeq6FXOvLz5-15" value="Config Auto" style="rounded=0;whiteSpace=wrap;html=1;" parent="1" vertex="1">
          <mxGeometry x="210" y="50" width="120" height="60" as="geometry" />
        </mxCell>
        <mxCell id="yBC6R7OpuOeq6FXOvLz5-16" value="&lt;h1&gt;&lt;br&gt;&lt;/h1&gt;&lt;p&gt;Lorem ipsum dolor sit amet, consectetur adipisicing elit, sed do eiusmod tempor incididunt ut labore et dolore magna aliqua.&lt;/p&gt;" style="text;html=1;strokeColor=none;fillColor=none;spacing=5;spacingTop=-20;whiteSpace=wrap;overflow=hidden;rounded=0;" parent="1" vertex="1">
          <mxGeometry x="140" y="640" width="880" height="260" as="geometry" />
        </mxCell>
        <mxCell id="yBC6R7OpuOeq6FXOvLz5-17" value="&lt;h1&gt;&lt;br&gt;&lt;/h1&gt;&lt;p&gt;Lorem ipsum dolor sit amet, consectetur adipisicing elit, sed do eiusmod tempor incididunt ut labore et dolore magna aliqua.&lt;/p&gt;" style="text;html=1;strokeColor=none;fillColor=none;spacing=5;spacingTop=-20;whiteSpace=wrap;overflow=hidden;rounded=0;" parent="1" vertex="1">
          <mxGeometry x="130" y="680" width="880" height="260" as="geometry" />
        </mxCell>
        <mxCell id="yBC6R7OpuOeq6FXOvLz5-18" value="&lt;h1&gt;&lt;br&gt;&lt;/h1&gt;&lt;p&gt;Lorem ipsum dolor sit amet, consectetur adipisicing elit, sed do eiusmod tempor incididunt ut labore et dolore magna aliqua.&lt;/p&gt;" style="text;html=1;strokeColor=none;fillColor=none;spacing=5;spacingTop=-20;whiteSpace=wrap;overflow=hidden;rounded=0;" parent="1" vertex="1">
          <mxGeometry x="130" y="720" width="880" height="260" as="geometry" />
        </mxCell>
        <mxCell id="yBC6R7OpuOeq6FXOvLz5-19" value="" style="rounded=0;whiteSpace=wrap;html=1;" parent="1" vertex="1">
          <mxGeometry x="490" y="460" width="120" height="60" as="geometry" />
        </mxCell>
        <mxCell id="yBC6R7OpuOeq6FXOvLz5-20" value="" style="rounded=0;whiteSpace=wrap;html=1;" parent="1" vertex="1">
          <mxGeometry x="490" y="460" width="120" height="60" as="geometry" />
        </mxCell>
        <mxCell id="OnydKX1fw2DtDdzPIU7D-1" value="fd" style="text;strokeColor=none;fillColor=none;align=left;verticalAlign=middle;spacingLeft=4;spacingRight=4;overflow=hidden;points=[[0,0.5],[1,0.5]];portConstraint=eastwest;rotatable=0;whiteSpace=wrap;html=1;" vertex="1" parent="1">
          <mxGeometry x="40" y="210" width="980" height="30" as="geometry" />
        </mxCell>
      </root>
    </mxGraphModel>
  </diagram>
</mxfile>
